<svg height="512" viewBox="0 0 60 60" width="512" xmlns="http://www.w3.org/2000/svg"><g id="Page-1" fill="none" fill-rule="evenodd"><g id="034---Rubbish" fill-rule="nonzero"><g id="Color" transform="translate(1 1)"><path id="Shape" d="m40 14v16c-.0007002.7953814-.3172301 1.5579306-.88 2.12-.3131353.3181077-.696844.5579256-1.12.7v14.18c0 1.1045695-.8954305 2-2 2s-2-.8954305-2-2v-22c0-1.6568542-1.3431458-3-3-3s-3 1.3431458-3 3v22c0 1.1045695-.8954305 2-2 2s-2-.8954305-2-2v-17.18c-1.1957287-.4227483-1.9964356-1.5517451-2-2.82v-13h-4l1.3 26 .51 10.2c.1066651 2.1306674 1.866666 3.8026683 4 3.8h24.39c1.4311692.0021095 2.7544162-.7605689 3.47-2 .310278-.5516808.4882814-1.1678465.52-1.8l1.81-36.2zm8 33c0 1.1045695-.8954305 2-2 2s-2-.8954305-2-2v-25c0-1.1045695.8954305-2 2-2s2 .8954305 2 2z" fill="#607d8b"/><g fill="#37474f"><path id="Shape" d="m51 14-1.81 36.2c-.0317186.6321535-.209722 1.2483192-.52 1.8-.7155838 1.2394311-2.0388308 2.0021095-3.47 2.0000044l3-.0000044c1.4311692.0021095 2.7544162-.7605689 3.47-2 .310278-.5516808.4882814-1.1678465.52-1.8l1.81-36.2z"/><path id="Shape" d="m28 27v20c0 1.1045695-.8954305 2-2 2s-2-.8954305-2-2v-17.18c.3193835.1211451.6584195.1821716 1 .18 1.6568542 0 3-1.3431458 3-3z"/><path id="Shape" d="m38 32.82v14.18c0 1.1045695-.8954305 2-2 2s-2-.8954305-2-2v-17c0 1.6568542 1.3431458 3 3 3 .3415805.0021716.6806165-.0588549 1-.18z"/></g><path id="Shape" d="m58 11c0 1.6568542-1.3431458 3-3 3h-38c-1.6568542 0-3-1.3431458-3-3 0-1.65685425 1.3431458-3 3-3h38c1.6568542 0 3 1.34314575 3 3z" fill="#607d8b"/><path id="Shape" d="m55 8h-3c1.6568542 0 3 1.34314575 3 3 0 1.6568542-1.3431458 3-3 3h3c1.6568542 0 3-1.3431458 3-3 0-1.65685425-1.3431458-3-3-3z" fill="#37474f"/><path id="Shape" d="m46.75 8h-4.36l-1.45-3.39c-.1592819-.37628235-.5314683-.61780758-.94-.61h-8c-.4012802.00032704-.7635008.24049505-.92.61l-1.47 3.39h-4.36l2.39-5.58c.6321253-1.47018513 2.0796806-2.42211003 3.68-2.42h9.36c1.6003194-.00211003 3.0478747.94981487 3.68 2.42z" fill="#607d8b"/><path id="Shape" d="m48 22v25c0 1.1045695-.8954305 2-2 2s-2-.8954305-2-2v-25c0-1.1045695.8954305-2 2-2s2 .8954305 2 2z" fill="#37474f"/><path id="Shape" d="m40 14v16c-.0007002.7953814-.3172301 1.5579306-.88 2.12-.3131353.3181077-.696844.5579256-1.12.7-.3193835.1211451-.6584195.1821716-1 .18-1.6568542 0-3-1.3431458-3-3v-5c0-1.6568542-1.3431458-3-3-3s-3 1.3431458-3 3v2c0 1.6568542-1.3431458 3-3 3-.3415805.0021716-.6806165-.0588549-1-.18-1.1957287-.4227483-1.9964356-1.5517451-2-2.82v-13z" fill="#a4c400"/><path id="Shape" d="m28 22c-1.6568542 0-3 1.3431458-3 3v2c-.0007002.7953814-.3172301 1.5579306-.88 2.12-.1884815.1808197-.4003718.3355333-.63.46.1609118.0980384.3318935.1785004.51.24.3193835.1211451.6584195.1821716 1 .18 1.6568542 0 3-1.3431458 3-3v-2c.0064304-1.0653332.5773664-2.0473431 1.5-2.58-.4531431-.2723195-.971332-.4174123-1.5-.42z" fill="#90ac00"/><path id="Shape" d="m37 14v16c-.0007002.7953814-.3172301 1.5579306-.88 2.12-.1868262.1784094-.3950868.3329253-.62.46.4531431.2723195.971332.4174123 1.5.42.3415805.0021716.6806165-.0588549 1-.18.423156-.1420744.8068647-.3818923 1.12-.7.5627699-.5620694.8792998-1.3246186.88-2.12v-16z" fill="#90ac00"/><path id="Shape" d="m58 55c0 1.6568542-1.3431458 3-3 3h-52c-1.65685425 0-3-1.3431458-3-3s1.34314575-3 3-3h3c1.65685425 0 3-1.3431458 3-3s-1.34314575-3-3-3h-3c-1.65685425 0-3-1.3431458-3-3s1.34314575-3 3-3h16.3l.51 10.2c.1066651 2.1306674 1.866666 3.8026683 4 3.8h24.39c1.4311692.0021095 2.7544162-.7605689 3.47-2h3.33c1.6568542 0 3 1.3431458 3 3z" fill="#a4c400"/><path id="Shape" d="m57.12 52.88c-.5620694-.5627699-1.3246186-.8792998-2.12-.88h-3c1.6568542 0 3 1.3431458 3 3s-1.3431458 3-3 3h3c1.2125666-.0010665 2.305263-.7319802 2.7691479-1.8523059.4638849-1.1203258.2077333-2.4097468-.6491479-3.2676941z" fill="#90ac00"/><path id="Shape" d="m20.8 54 3 .0000032c-2.133334.0026651-3.8933349-1.6693358-4-3.8000032l-.5-10.2h-3l.51 10.2c.1064718 2.1268065 1.8605317 3.7973397 3.99 3.8z" fill="#90ac00"/></g><g id="Outline" fill="#000"><path id="Shape" d="m56 16c2.209139 0 4-1.790861 4-4s-1.790861-4-4-4h-7.59l-2.13-5c-.7977656-1.82794371-2.6055677-3.00694508-4.6-3h-9.36c-1.9944323-.00694508-3.8022344 1.17205629-4.6 3l-2.13 5h-7.59c-2.209139 0-4 1.790861-4 4s1.790861 4 4 4h.05l1.2 24h-15.25c-2.209139 0-4 1.790861-4 4s1.790861 4 4 4h3c1.1045695 0 2 .8954305 2 2s-.8954305 2-2 2h-3c-2.209139 0-4 1.790861-4 4s1.790861 4 4 4h52c2.209139 0 4-1.790861 4-4s-1.790861-4-4-4h-1.92c.056886-.2466144.0936733-.4974369.11-.75zm-26.44-12.19c.4756192-1.10068093 1.5609561-1.81244172 2.76-1.81h9.36c1.1990439-.00244172 2.2843808.70931907 2.76 1.81l1.79 4.19h-2.18l-1.19-2.79c-.3188965-.74182324-1.0525884-1.21911745-1.86-1.21h-8c-.8001597-.00105502-1.5239373.47490743-1.84 1.21l-1.16 2.79h-2.23zm12.32 4.19h-9.76l.88-2h8zm-25.88 4c0-1.1045695.8954305-2 2-2h38c1.1045695 0 2 .8954305 2 2s-.8954305 2-2 2h-38c-1.1045695 0-2-.8954305-2-2zm20 22.44c.6039929.3635516 1.2950401.5570448 2 .56v13c0 .5522847-.4477153 1-1 1s-1-.4477153-1-1zm2-1.44c-1.1045695 0-2-.8954305-2-2v-5c0-2.209139-1.790861-4-4-4s-4 1.790861-4 4v2c0 1.1045695-.8954305 2-2 2s-2-.8954305-2-2v-12h16v15c0 1.1045695-.8954305 2-2 2zm-12-1c.7049599-.0029552 1.3960071-.1964484 2-.56v16.56c0 .5522847-.4477153 1-1 1s-1-.4477153-1-1zm-4-16v12c.0085738 1.4204442.7698219 2.7297908 2 3.44v16.56c0 1.6568542 1.3431458 3 3 3s3-1.3431458 3-3v-22c0-1.1045695.8954305-2 2-2s2 .8954305 2 2v22c0 1.6568542 1.3431458 3 3 3s3-1.3431458 3-3v-13.56c1.2301781-.7102092 1.9914262-2.0195558 2-3.44v-15h12l-1.81 35.15c-.0799988 1.5980005-1.3999995 2.8520012-3 2.85h-24.38c-1.6000005.0020012-2.9200012-1.2519995-3-2.85l-1.76-35.15zm34 38c1.1045695 0 2 .8954305 2 2s-.8954305 2-2 2h-52c-1.1045695 0-2-.8954305-2-2s.8954305-2 2-2h3c2.209139 0 4-1.790861 4-4s-1.790861-4-4-4h-3c-1.1045695 0-2-.8954305-2-2s.8954305-2 2-2h15.35l.1 2h-2.45c-.5522847 0-1 .4477153-1 1s.4477153 1 1 1h2.55l.15 3h-4.7c-.5522847 0-1 .4477153-1 1s.4477153 1 1 1h4.8v.25c.0516407.9958779.3998906 1.9535652 1 2.75h-3.8c-.5522847 0-1 .4477153-1 1s.4477153 1 1 1h32.19c1.5737865 0 3.0557281-.7409708 4-2z"/><path id="Shape" d="m47 51c1.6568542 0 3-1.3431458 3-3v-25c0-1.6568542-1.3431458-3-3-3s-3 1.3431458-3 3v25c0 .7956495.3160705 1.5587112.8786797 2.1213203.5626091.5626092 1.3256708.8786797 2.1213203.8786797zm-1-28c0-.5522847.4477153-1 1-1s1 .4477153 1 1v25c0 .5522847-.4477153 1-1 1s-1-.4477153-1-1z"/><path id="Shape" d="m12 46h1c.5522847 0 1-.4477153 1-1s-.4477153-1-1-1h-1c-.5522847 0-1 .4477153-1 1s.4477153 1 1 1z"/><path id="Shape" d="m13 54h-1c-.5522847 0-1 .4477153-1 1s.4477153 1 1 1h1c.5522847 0 1-.4477153 1-1s-.4477153-1-1-1z"/></g></g></g></svg>