<svg height="512pt" viewBox="0 -2 512.00129 512" width="512pt" xmlns="http://www.w3.org/2000/svg"><path d="m385.261719 138.0625c0 71.390625-57.871094 129.261719-129.261719 129.261719s-129.261719-57.871094-129.261719-129.261719c0-71.386719 57.871094-129.261719 129.261719-129.261719s129.261719 57.875 129.261719 129.261719zm0 0" fill="#c4beb8"/><path d="m350.792969 138.0625c0 52.351562-42.441407 94.792969-94.792969 94.792969s-94.792969-42.441407-94.792969-94.792969 42.441407-94.792969 94.792969-94.792969 94.792969 42.441407 94.792969 94.792969zm0 0" fill="#6b6b6b"/><path d="m161.207031 138.0625h189.585938v206.820312h-189.585938zm0 0" fill="#c1dce5"/><path d="m161.207031 172.535156h25.371094c9.78125.003906 17.710937 7.933594 17.714844 17.714844v33.988281c0 9.519531 7.71875 17.234375 17.238281 17.234375 9.515625 0 17.234375-7.714844 17.234375-17.234375v-17.234375c0-9.519531 7.714844-17.234375 17.234375-17.234375s17.234375 7.714844 17.234375 17.234375v43.085938c0 9.519531 7.714844 17.234375 17.234375 17.234375s17.234375-7.714844 17.234375-17.234375v-60.433594c0-9.457031 7.667969-17.121094 17.125-17.121094h25.964844v-34.472656h-189.585938zm0 0" fill="#917966"/><path d="m6.09375 327.648438 12.925781-12.925782c11.894531-11.898437 31.179688-11.902344 43.078125-.007812.003906.003906.007813.003906.007813.007812 11.894531 11.898438 31.183593 11.902344 43.082031.007813 0-.003907.003906-.007813.007812-.007813 11.894532-11.898437 31.179688-11.902344 43.078126-.007812l.007812.007812c11.894531 11.898438 31.183594 11.902344 43.082031.007813 0-.003907.003907-.007813.003907-.007813 11.894531-11.898437 31.183593-11.902344 43.082031-.007812l.007812.007812c11.894531 11.898438 31.183594 11.902344 43.082031.007813 0-.003907.003907-.007813.003907-.007813 11.894531-11.898437 31.183593-11.902344 43.082031-.007812l.007812.007812c11.894532 11.898438 31.179688 11.902344 43.078126.007813.003906-.003907.007812-.007813.007812-.007813 11.894531-11.898437 31.183594-11.902344 43.082031-.007812 0 .003906.003907.003906.007813.007812 11.894531 11.898438 31.179687 11.902344 43.078125.007813.003906-.003907.007812-.007813.007812-.007813 11.894531-11.898437 31.183594-11.902344 43.082031-.007812 0 .003906.003907.003906.003907.007812l12.929687 12.925782v180.96875h-499.816406zm0 0" fill="#61b3bc"/><g fill="#ffd884"><path d="m248.5625 406.929688-24.128906-35.847657c-15.277344 9.386719-25.578125 25.09375-28.101563 42.84375l42.433594 8.515625c0-6.628906 3.8125-12.664062 9.796875-15.511718zm0 0"/><path d="m273.234375 422.441406 42.425781-8.488281c-2.414062-17.03125-11.976562-32.21875-26.292968-41.753906l-26.023438 34.730469c6.011719 2.832031 9.859375 8.867187 9.890625 15.511718zm0 0"/><path d="m256 439.675781c-3.84375-.011719-7.570312-1.324219-10.574219-3.722656l-16.191406 40.503906c16.847656 8.429688 36.683594 8.429688 53.53125 0l-16.191406-40.503906c-3.003907 2.398437-6.730469 3.710937-10.574219 3.722656zm0 0"/></g><path d="m443.800781 308.628906c-8.652343 8.242188-22.25 8.242188-30.902343 0-14.632813-14.566406-38.085938-15.203125-53.488282-1.453125v-78.09375c50.367188-57.113281 44.902344-144.242187-12.210937-194.609375-57.113281-50.367187-144.242188-44.902344-194.609375 12.210938-45.960938 52.113281-45.960938 130.285156 0 182.398437v78.089844c-15.402344-13.75-38.855469-13.109375-53.488282 1.457031-8.652343 8.242188-22.25 8.242188-30.902343 0-15.269531-15.25-40.003907-15.25-55.273438 0l-12.925781 12.925782 12.183594 12.1875 12.925781-12.925782c8.65625-8.242187 22.25-8.242187 30.902344 0 15.269531 15.25 40.007812 15.25 55.273437 0 8.542969-8.515625 22.363282-8.515625 30.902344 0 15.269531 15.25 40.003906 15.25 55.273438 0 8.542968-8.515625 22.359374-8.515625 30.902343 0 15.269531 15.25 40.003907 15.25 55.273438 0 8.542969-8.515625 22.359375-8.515625 30.902343 0 15.269532 15.25 40.003907 15.25 55.273438 0 8.542969-8.515625 22.359375-8.515625 30.902344 0 15.269531 15.25 40.003906 15.25 55.273437 0 8.652344-8.242187 22.25-8.242187 30.902344 0l12.925781 12.925782 12.183594-12.1875-12.925781-12.925782c-15.269531-15.25-40.003907-15.25-55.273438 0zm-291.210937-170.566406v62.046875c-34.320313-57.113281-15.84375-131.230469 41.269531-165.550781 57.109375-34.320313 131.230469-15.84375 165.550781 41.269531 22.980469 38.238281 22.980469 86.039063 0 124.28125v-62.046875c0-57.109375-46.296875-103.410156-103.410156-103.410156s-103.410156 46.300781-103.410156 103.410156zm189.144531-8.617188h-171.488281c4.753906-47.355468 46.996094-81.890624 94.351562-77.136718 40.785156 4.09375 73.042969 36.351562 77.136719 77.136718zm.441406 185.570313c-5.796875.011719-11.355469-2.289063-15.453125-6.386719-15.261718-15.257812-40.007812-15.257812-55.269531 0-8.65625 8.242188-22.25 8.242188-30.90625 0-15.261719-15.257812-40.007813-15.257812-55.269531 0-4.097656 4.097656-9.65625 6.398438-15.453125 6.386719v-133.863281h16.753906c5.023437.007812 9.09375 4.082031 9.097656 9.105468v33.980469c0 14.277344 11.574219 25.851563 25.855469 25.851563 14.277344 0 25.851562-11.574219 25.851562-25.851563v-17.234375c0-4.757812 3.859376-8.617187 8.617188-8.617187 4.761719 0 8.617188 3.855469 8.617188 8.617187v43.085938c0 14.277344 11.574218 25.855468 25.855468 25.855468 14.277344 0 25.851563-11.578124 25.851563-25.855468v-60.441406c.007812-4.691407 3.8125-8.492188 8.503906-8.496094h17.347656zm0-151.097656h-17.347656c-14.207031.011719-25.722656 11.523437-25.742187 25.730469v60.441406c0 4.761718-3.855469 8.621094-8.617188 8.621094-4.757812 0-8.617188-3.859376-8.617188-8.621094v-43.085938c0-14.277344-11.574218-25.851562-25.851562-25.851562s-25.855469 11.574218-25.855469 25.851562v17.234375c0 4.757813-3.855469 8.617188-8.617187 8.617188-4.757813 0-8.617188-3.855469-8.617188-8.617188v-33.976562c-.015625-14.542969-11.792968-26.324219-26.335937-26.34375h-16.75v-17.238281h172.347656v17.238281zm0 0"/><path d="m276.621094 437.867188c1.824218-2.445313 3.195312-5.199219 4.050781-8.128907l36.675781-7.296875c4.476563-.898437 7.480469-5.128906 6.84375-9.652344-2.753906-19.464843-13.6875-36.828124-30.050781-47.722656-3.804687-2.535156-8.925781-1.65625-11.667969 1.996094l-22.464844 29.964844c-1.324218-.25-2.664062-.398438-4.007812-.441406-1.265625.035156-2.527344.160156-3.773438.378906l-20.640624-30.675782c-2.582032-3.835937-7.730469-4.949218-11.667969-2.523437-17.476563 10.71875-29.253907 28.6875-32.109375 48.988281-.65625 4.535156 2.351562 8.789063 6.84375 9.6875l36.675781 7.332032c.855469 2.929687 2.226563 5.679687 4.050781 8.128906l-14.152344 35.382812c-1.660156 4.164063.148438 8.910156 4.164063 10.910156 19.257813 9.628907 41.925781 9.628907 61.183594 0 4.015625-2 5.828125-6.746093 4.164062-10.910156zm-20.621094-24.042969c4.757812 0 8.617188 3.859375 8.617188 8.617187 0 4.757813-3.859376 8.617188-8.617188 8.617188-4.761719 0-8.617188-3.859375-8.617188-8.617188 0-4.757812 3.859376-8.617187 8.617188-8.617187zm-23.792969-1.484375-25.566406-5.117188c2.847656-9.285156 8.273437-17.570312 15.640625-23.898437l14.648438 21.796875c-1.96875 2.125-3.5625 4.566406-4.722657 7.21875zm8.195313 59.367187 9.667968-24.128906c3.890626 1 7.96875 1 11.859376 0l9.667968 24.128906c-10.144531 3.25-21.050781 3.25-31.195312 0zm50.585937-87.304687c6.71875 6.207031 11.679688 14.078125 14.371094 22.820312l-25.566406 5.117188c-1.125-2.550782-2.65625-4.90625-4.53125-6.96875zm0 0"/></svg>