<svg height="512" viewBox="0 0 60 60" width="512" xmlns="http://www.w3.org/2000/svg"><g id="011---Sewage" fill="none"><g id="Icons" transform="translate(6 1)"><path id="Shape" d="m53 21c0 11.6-6.27 21-14 21h-16v-42h16c7.73 0 14 9.4 14 21z" fill="#00838f"/><path id="Shape" d="m50 21c0 11.6-6.27 21-14 21h-13v-42h13c7.73 0 14 9.4 14 21z" fill="#00bcd4"/><path id="Shape" d="m37 21c0 11.6-6.27 21-14 21h-5.26l-7.29-11.7c-.97576898-3.0029392-1.46527708-6.1425429-1.45-9.3 0-10.84 5.47-19.76 12.5-20.88.4959325-.08049576.9975777-.12062738 1.5-.12 7.73 0 14 9.4 14 21z" fill="#0377bc"/><path id="Shape" d="m34 21c0 11.6-6.27 21-14 21h-2.26l-7.29-11.7c-.97576898-3.0029392-1.46527708-6.1425429-1.45-9.3 0-10.84 5.47-19.76 12.5-20.88 7.03 1.12 12.5 10.04 12.5 20.88z" fill="#02a9f4"/><path id="Shape" d="m32.91 21c.0009914 2.3628896-.3049002 4.7159022-.91 7h-17s-.35.12-.93.37c-.6686-2.3994176-1.0050665-4.8791758-1-7.37 0-9.39 4.44-17 9.91-17s9.93 7.61 9.93 17z" fill="#3f51b5"/><path id="Shape" d="m32 28c0 .1-.06.21-.1.31.0047226.0163321.0047226.0336679 0 .05-1.26 4.34-4.41 9.64-8.9 9.64-4.23.69-4.9 10.41-5 14.7-.03866 3.0375661-2.5324339 5.4686599-5.57 5.4299999-3.03756609-.0386599-5.46865989-2.5324338-5.43-5.5699999v-2.56c0 1.6568542-1.34314575 3-3 3-.67200513.0734052-1.35190065.0122146-2-.18-1.1957287-.4227483-1.99643563-1.5517451-2-2.82v-1c0-9.63 5.67-17 14.06-20.63.1 0 .16-.1.94-.37z" fill="#008a00"/><path id="Shape" d="m32 28c-.1 0 .08 0-3 0 0 .1-.06.21-.1.31.0047226.0163321.0047226.0336679 0 .05-1.26 4.34-4.41 9.64-8.9 9.64-4.23.69-4.9 10.41-5 14.7-.0656314 2.3928768-1.6904784 4.4604946-4 5.09.4838583.1418701.9857787.2126106 1.49.21 2.9756021.0338831 5.4282903-2.325327 5.51-5.3.13-4.28.8-14 5-14.7 4.48 0 7.64-5.29 8.93-9.63.0047226-.0163321.0047226-.0336679 0-.05 0-.1.07-.21.1-.31z" fill="#007900"/></g><g id="Layer_10" fill="#000"><path id="Shape" d="m60 22c0-12.13-6.73-22-15-22h-16c-10.49 0-18.23 15.92-13.71 30.87-3.7681372 2.4777874-6.73508865 5.9971338-8.54 10.13h-5.75c-.55228475 0-1 .4477153-1 1s.44771525 1 1 1h5c-.76119659 2.595576-1.09886413 5.2969164-1 8 0 2.209139 1.790861 4 4 4 1.0544366.132165 2.1238704-.0670433 3.06-.57.4687651 3.2128174 3.2332211 5.589055 6.48 5.57 3.5034406.0227834 6.3782163-2.76744 6.46-6.27.0257547-3.2816717.4454246-6.5483823 1.25-9.73h32.75c.5522847 0 1-.4477153 1-1s-.4477153-1-1-1h-7.76c5.16-3.48 8.76-11.13 8.76-20zm-31-20c7.17 0 13 9 13 20s-5.83 20-13 20h-2c.351698-.9420514 1.1079673-1.6762934 2.06-2 4.13-.06 8-4.17 9.8-10.51.0464097-.064448.0834451-.1351519.11-.21 3.33-11.66-2.11-25.28-9.97-25.28-7.28 0-13.34 12.49-10.11 24.83-.62.2933333-1.23.6266667-1.83 1-3.83-13.7 3-27.83 11.94-27.83zm-8.25 26c-.4866142-1.9632626-.7383768-3.9773636-.75-6 0-8.37 4.29-16 9-16 5.33 0 11.08 10.65 8.26 22-17.47 0-16.26 0-16.51 0zm2.25 25.67c-.0492134 2.4215223-2.0380814 4.3524188-4.46 4.33-2.4776.0222429-4.5070638-1.962519-4.54-4.44v-5.56c0-.5522847-.4477153-1-1-1s-1 .4477153-1 1v3c0 1.1045695-.8954305 2-2 2h-1c-1.1045695 0-2-.8954305-2-2v-1c0-9.29 5.46-16.2 13.45-19.71l.73-.29h15.46c-1.64 4.84-4.64 8-7.64 8h-.16c-4.98.83-5.71 10.63-5.84 15.67zm22-11.67h-9.76c11.65-7.85 11.68-32.13 0-40h9.76c7.17 0 13 9 13 20s-5.83 20-13 20z"/><path id="Shape" d="m48 37h-5c-.5522847 0-1 .4477153-1 1s.4477153 1 1 1h5c.5522847 0 1-.4477153 1-1s-.4477153-1-1-1z"/><path id="Shape" d="m21.55 36.11c-1.6961776 1.0261915-2.6794636 2.911787-2.55 4.89 0 .5522847.4477153 1 1 1s1-.4477153 1-1c-.1135885-1.2247696.4451579-2.4149759 1.46-3.11.486561-.2531594.6784034-.8509938.43-1.34-.2495756-.490313-.8483464-.6869243-1.34-.44z"/><path id="Shape" d="m20 44c-.5522847 0-1 .4477153-1 1v2c0 .5522847.4477153 1 1 1s1-.4477153 1-1v-2c0-.5522847-.4477153-1-1-1z"/><path id="Shape" d="m14.55 39.11c-1.4798011.752589-2.4501358 2.232825-2.55 3.89 0 .5522847.4477153 1 1 1s1-.4477153 1-1c.106502-.8991516.6487808-1.6882607 1.45-2.11.3460386-.1440974.5824323-.4696151.6123817-.8432591s-.1515756-.73266-.4702434-.9300368c-.3186678-.1973769-.7209575-.1999648-1.0421383-.0067041z"/></g></g></svg>