<?xml version="1.0" encoding="iso-8859-1"?>
<!-- Generator: Adobe Illustrator 19.0.0, SVG Export Plug-In . SVG Version: 6.00 Build 0)  -->
<svg version="1.1" id="Capa_1" xmlns="http://www.w3.org/2000/svg" xmlns:xlink="http://www.w3.org/1999/xlink" x="0px" y="0px"
	 viewBox="0 0 496 496" style="enable-background:new 0 0 496 496;" xml:space="preserve">
<path style="fill:#498399;" d="M112,264v-64c0-79.2,64.8-144,144-144h24v64h-24c-35.2,0-64,28.8-64,64v80"/>
<path d="M200,264h-16v-80c0-40,32-72,72-72h16V64h-16c-75.2,0-136,60.8-136,136v64h-16v-64c0-84,68-152,152-152h24c4.8,0,8,3.2,8,8
	v64c0,4.8-3.2,8-8,8h-24c-31.2,0-56,24.8-56,56V264z"/>
<path style="fill:#79A5B5;" d="M160,248v-64c0-52.8,43.2-96,96-96h24v32h-24c-35.2,0-64,28.8-64,64v80"/>
<path d="M200,264h-16v-80c0-40,32-72,72-72h16V96h-16c-48.8,0-88,39.2-88,88v64h-16v-64c0-57.6,46.4-104,104-104h24c4.8,0,8,3.2,8,8
	v32c0,4.8-3.2,8-8,8h-24c-31.2,0-56,24.8-56,56V264z"/>
<polyline style="fill:#4E6F3A;" points="488,120 488,8 280,8 280,120 400,120 "/>
<path d="M400,128H280c-4.8,0-8-3.2-8-8V8c0-4.8,3.2-8,8-8h208c4.8,0,8,3.2,8,8v112h-16V16H288v96h112V128z"/>
<rect x="280" y="8" style="fill:#89A74D;" width="32" height="112"/>
<path d="M312,128h-32c-4.8,0-8-3.2-8-8V8c0-4.8,3.2-8,8-8h32c4.8,0,8,3.2,8,8v112C320,124.8,316.8,128,312,128z M288,112h16V16h-16
	V112z"/>
<rect x="312" y="32" width="176" height="16"/>
<polygon style="fill:#A69677;" points="272,248 248,224 248,200 272,176 296,176 320,152 344,152 360,168 384,168 400,152 400,120 
	416,104 448,104 464,120 488,120 488,216 456,248 "/>
<path style="fill:#79A5B5;" d="M8,264v224h480V248H224l-8.8,8.8c-4.8,4.8-10.4,7.2-16.8,7.2h-12c-6.4,0-12.8-2.4-16.8-7.2l-1.6-1.6
	c-4.8-4.8-10.4-7.2-16.8-7.2h-12c-6.4,0-12.8,2.4-16.8,7.2l-1.6,1.6c-4.8,4.8-10.4,7.2-16.8,7.2H92c-6.4,0-12.8-2.4-16.8-7.2
	l-1.6-1.6c-7.2-4.8-12.8-7.2-19.2-7.2H41.6c-6.4,0-12.8,2.4-16.8,7.2L16,264H8z"/>
<path d="M488,496H8c-4.8,0-8-3.2-8-8V264c0-4.8,3.2-8,8-8h4.8l6.4-6.4c6.4-6.4,14.4-9.6,22.4-9.6h12c8.8,0,16.8,3.2,22.4,9.6
	l1.6,1.6c3.2,3.2,7.2,4.8,11.2,4.8h12c4,0,8-1.6,11.2-4.8l1.6-1.6C120,244,128,240,136,240h12c8.8,0,16.8,3.2,22.4,9.6l1.6,1.6
	c3.2,3.2,7.2,4.8,11.2,4.8h12c4,0,8-1.6,11.2-4.8l8.8-8.8c1.6-1.6,3.2-2.4,5.6-2.4h264c4.8,0,8,3.2,8,8v240
	C496,492.8,492.8,496,488,496z M16,480h464V256H227.2l-6.4,6.4c-6.4,5.6-14.4,9.6-22.4,9.6h-12c-8.8,0-16.8-3.2-22.4-9.6l-1.6-1.6
	c-3.2-3.2-7.2-4.8-11.2-4.8h-12c-4,0-8,1.6-11.2,4.8l-1.6,1.6C120,268,112,272,104,272H92c-8.8,0-16.8-3.2-22.4-9.6l-1.6-1.6
	c-5.6-3.2-9.6-4.8-13.6-4.8H41.6c-4,0-8,1.6-11.2,4.8l-8.8,8.8c-1.6,1.6-3.2,2.4-5.6,2.4V480z"/>
<path d="M461.6,253.6l-11.2-11.2l29.6-29.6V128h-16c-2.4,0-4-0.8-5.6-2.4L444.8,112h-25.6L408,123.2V152c0,2.4-0.8,4-2.4,5.6l-16,16
	c-1.6,1.6-3.2,2.4-5.6,2.4h-24c-2.4,0-4-0.8-5.6-2.4L340.8,160h-17.6l-21.6,21.6c-1.6,1.6-3.2,2.4-5.6,2.4h-20.8L256,203.2v17.6
	l21.6,21.6l-11.2,11.2l-24-24c-1.6-1.6-2.4-3.2-2.4-5.6v-24c0-2.4,0.8-4,2.4-5.6l24-24c1.6-1.6,3.2-2.4,5.6-2.4h20.8l21.6-21.6
	c1.6-1.6,3.2-2.4,5.6-2.4h24c2.4,0,4,0.8,5.6,2.4l13.6,13.6h17.6l11.2-11.2V120c0-2.4,0.8-4,2.4-5.6l16-16c1.6-1.6,3.2-2.4,5.6-2.4
	h32c2.4,0,4,0.8,5.6,2.4l13.6,13.6H488c4.8,0,8,3.2,8,8v96c0,2.4-0.8,4-2.4,5.6L461.6,253.6z"/>
<path d="M413.6,213.6l-11.2-11.2l13.6-13.6v-9.6l-21.6-21.6l11.2-11.2l24,24c1.6,1.6,2.4,3.2,2.4,5.6v16c0,2.4-0.8,4-2.4,5.6
	L413.6,213.6z"/>
<path d="M346.4,229.6l-16-16c-1.6-1.6-2.4-3.2-2.4-5.6v-16c0-2.4,0.8-4,2.4-5.6l24-24l11.2,11.2L344,195.2v9.6l13.6,13.6
	L346.4,229.6z"/>
<rect x="299.995" y="171.228" transform="matrix(-0.7071 0.7071 -0.7071 -0.7071 658.7365 103.1984)" width="16" height="33.6"/>
<rect x="435.204" y="124" transform="matrix(-0.7071 0.7071 -0.7071 -0.7071 864.9572 -94.277)" width="33.6" height="16"/>
<rect x="467.99" y="187.189" transform="matrix(-0.7071 0.7071 -0.7071 -0.7071 956.8069 11.6552)" width="16" height="33.6"/>
<path d="M408,432c-17.6,0-32-14.4-32-32v-40h16v40c0,8.8,7.2,16,16,16s16-7.2,16-16v-24h16v24C440,417.6,425.6,432,408,432z"/>
<rect x="400" y="424" width="16" height="64"/>
<path d="M328,464c-17.6,0-32-14.4-32-32v-40h16v40c0,8.8,7.2,16,16,16s16-7.2,16-16v-24h16v24C360,449.6,345.6,464,328,464z"/>
<rect x="320" y="456" width="16" height="32"/>
<rect x="408" y="448" width="24" height="16"/>
<path style="fill:#A1927D;" d="M238.4,340l65.6-44v48l-65.6-44c-4-2.4-8.8-4-13.6-4h-3.2c-4,0-7.2,0.8-10.4,2.4l-22.4,11.2
	c-2.4,1.6-4.8,4-4.8,7.2v6.4c0,3.2,1.6,5.6,4.8,7.2l22.4,11.2c3.2,1.6,7.2,2.4,10.4,2.4h3.2C229.6,344,234.4,342.4,238.4,340z"/>
<path d="M224.8,352h-3.2c-4.8,0-9.6-0.8-14.4-3.2l-22.4-11.2c-5.6-2.4-8.8-8-8.8-14.4v-6.4c0-6.4,3.2-12,8.8-14.4l22.4-11.2
	c4.8-2.4,9.6-3.2,14.4-3.2h3.2c6.4,0,12.8,1.6,17.6,5.6l25.6,16.8l31.2-20.8c4-2.4,8.8-1.6,11.2,2.4c0.8,1.6,1.6,3.2,1.6,4.8v48
	c0,4.8-3.2,8-8,8c-1.6,0-3.2-0.8-4.8-1.6L268,330.4l-25.6,16.8l0,0C237.6,350.4,231.2,352,224.8,352z M221.6,304
	c-2.4,0-4.8,0.8-7.2,1.6L192,316.8v6.4l22.4,11.2c2.4,0.8,4.8,1.6,7.2,1.6h3.2c3.2,0,6.4-0.8,8.8-2.4l20-13.6l-20-13.6
	c-2.4-1.6-5.6-2.4-8.8-2.4H221.6z M282.4,320l13.6,8.8v-18.4L282.4,320z"/>
<path d="M213.6,341.6l-11.2-11.2l3.2-3.2c1.6-1.6,2.4-3.2,2.4-5.6v-2.4c0-2.4-0.8-4-2.4-5.6l-3.2-3.2l11.2-11.2l3.2,3.2
	c4.8,4.8,7.2,10.4,7.2,16.8v2.4c0,6.4-2.4,12.8-7.2,16.8L213.6,341.6z"/>
<path d="M50.4,493.6l-11.2-11.2c-4.8-4.8-7.2-10.4-7.2-16.8v-2.4c0-6.4,2.4-12.8,7.2-16.8l6.4-6.4c1.6-2.4,2.4-4.8,2.4-6.4v-2.4
	c0-2.4-0.8-4-2.4-5.6l-6.4-6.4c-4.8-5.6-7.2-11.2-7.2-17.6V392h16v9.6c0,2.4,0.8,4,2.4,5.6l6.4,6.4c4.8,4.8,7.2,10.4,7.2,16.8v2.4
	c0,6.4-2.4,12.8-7.2,16.8l-6.4,6.4c-1.6,2.4-2.4,4.8-2.4,6.4v2.4c0,2.4,0.8,4,2.4,5.6l11.2,11.2L50.4,493.6z"/>
<path d="M90.4,493.6l-11.2-11.2c-4.8-4.8-7.2-10.4-7.2-16.8v-2.4c0-6.4,2.4-12.8,7.2-16.8l6.4-6.4c1.6-1.6,2.4-3.2,2.4-5.6V424h16
	v9.6c0,6.4-2.4,12.8-7.2,16.8l-6.4,6.4c-1.6,1.6-2.4,3.2-2.4,5.6v2.4c0,2.4,0.8,4,2.4,5.6l11.2,11.2L90.4,493.6z"/>
<circle style="fill:#4E6F3A;" cx="144" cy="448" r="16"/>
<path d="M144,472c-13.6,0-24-10.4-24-24s10.4-24,24-24s24,10.4,24,24S157.6,472,144,472z M144,440c-4.8,0-8,3.2-8,8s3.2,8,8,8
	s8-3.2,8-8S148.8,440,144,440z"/>
<circle style="fill:#89A74D;" cx="56" cy="352" r="16"/>
<path d="M56,376c-13.6,0-24-10.4-24-24s10.4-24,24-24s24,10.4,24,24S69.6,376,56,376z M56,344c-4.8,0-8,3.2-8,8s3.2,8,8,8s8-3.2,8-8
	S60.8,344,56,344z"/>
<circle style="fill:#89A74D;" cx="104" cy="312" r="16"/>
<path d="M104,336c-13.6,0-24-10.4-24-24s10.4-24,24-24s24,10.4,24,24S117.6,336,104,336z M104,304c-4.8,0-8,3.2-8,8s3.2,8,8,8
	s8-3.2,8-8S108.8,304,104,304z"/>
<circle style="fill:#4E6F3A;" cx="136" cy="376" r="24"/>
<path d="M136,408c-17.6,0-32-14.4-32-32s14.4-32,32-32s32,14.4,32,32S153.6,408,136,408z M136,360c-8.8,0-16,7.2-16,16s7.2,16,16,16
	s16-7.2,16-16S144.8,360,136,360z"/>
<path style="fill:#D4AF1C;" d="M64,48c2.4,0,4.8,0.8,7.2,1.6l17.6-36c-16-8-34.4-8-50.4,0l17.6,36C59.2,48.8,61.6,48,64,48z"/>
<path d="M71.2,57.6c-1.6,0-2.4,0-3.2-0.8c-2.4-0.8-5.6-0.8-7.2,0c-4,1.6-8.8,0-10.4-3.2l0,0L32,17.6c-1.6-4,0-8.8,3.2-10.4
	c18.4-8.8,39.2-8.8,57.6,0c4,1.6,5.6,6.4,3.2,10.4l-17.6,36C76.8,56,74.4,57.6,71.2,57.6z M64,40c0.8,0,1.6,0,3.2,0l11.2-22.4
	c-8.8-3.2-19.2-3.2-28,0L60.8,40C62.4,40,63.2,40,64,40z"/>
<path style="fill:#D4AF1C;" d="M48,64H8c0,17.6,8,34.4,22.4,44.8l24-32C50.4,73.6,48,68.8,48,64z"/>
<path d="M30.4,116.8c-1.6,0-3.2-0.8-4.8-1.6C9.6,103.2,0,84,0,64c0-4.8,3.2-8,8-8h40c4.8,0,8,3.2,8,8c0,2.4,0.8,4.8,3.2,6.4
	c3.2,2.4,4,8,1.6,11.2l-24,32c-1.6,1.6-3.2,3.2-5.6,3.2C31.2,116.8,31.2,116.8,30.4,116.8z M16.8,72c1.6,9.6,5.6,18.4,12.8,24.8
	l15.2-20c-0.8-1.6-2.4-3.2-2.4-5.6H16.8V72z"/>
<path style="fill:#D4AF1C;" d="M80,64c0,4.8-2.4,9.6-6.4,12.8l24,32C112,98.4,120,81.6,120,64H80z"/>
<path d="M97.6,116.8h-0.8c-2.4,0-4-1.6-5.6-3.2l-24-32c-2.4-3.2-1.6-8.8,1.6-11.2c2.4-1.6,3.2-4,3.2-6.4c0-4.8,3.2-8,8-8h40
	c4.8,0,8,3.2,8,8c0,20-9.6,39.2-25.6,51.2C100.8,116,99.2,116.8,97.6,116.8z M84,77.6l15.2,20c6.4-7.2,11.2-16,12.8-24.8H87.2
	C85.6,73.6,84.8,76,84,77.6z"/>
<circle style="fill:#BF9106;" cx="64" cy="64" r="16"/>
<path d="M64,88c-13.6,0-24-10.4-24-24s10.4-24,24-24s24,10.4,24,24S77.6,88,64,88z M64,56c-4.8,0-8,3.2-8,8s3.2,8,8,8s8-3.2,8-8
	S68.8,56,64,56z"/>
<g>
</g>
<g>
</g>
<g>
</g>
<g>
</g>
<g>
</g>
<g>
</g>
<g>
</g>
<g>
</g>
<g>
</g>
<g>
</g>
<g>
</g>
<g>
</g>
<g>
</g>
<g>
</g>
<g>
</g>
</svg>
